<svg width="326.70001220703125px" height="140.6px" xmlns="http://www.w3.org/2000/svg" viewBox="86.64999389648438 4.700000000000003 326.70001220703125 140.6" style="background: rgba(0, 0, 0, 0) none repeat scroll 0% 0%;" preserveAspectRatio="xMidYMid"><defs>
  <filter id="editing-scratch" x="-100%" y="-100%" width="300%" height="300%">
    <!-- COLOR -->
    <feFlood flood-color="#ddd" flood-opacity="0.75" result="COLOR-blu"></feFlood>
    <feFlood flood-color="#666" flood-opacity="0.4" result="COLOR-red"></feFlood>
    <!-- COLOR END -->

    <!-- Texture -->
    <feTurbulence baseFrequency=".05" type="fractalNoise" numOctaves="3" seed="0" result="Texture_10"></feTurbulence>
    <feColorMatrix type="matrix" values="0 0 0 0 0,
    0 0 0 0 0,
    0 0 0 0 0,
    0 0 0 -2.1 1.1" in="Texture_10" result="Texture_20"></feColorMatrix>

    <feColorMatrix result="Texture_30" type="matrix" values="0 0 0 0 0,
    0 0 0 0 0,
    0 0 0 0 0,
    0 0 0 -1.7 1.8" in="Texture_10"></feColorMatrix>
    <!-- Texture -->

    <!-- FILL -->
    <feOffset dx="-3" dy="4" in="SourceAlpha" result="FILL_10"></feOffset>
    <feDisplacementMap scale="17" in="FILL_10" in2="Texture_10" result="FILL_20"></feDisplacementMap>
    <feComposite operator="in" in="Texture_30" in2="FILL_20" result="FILL_40"></feComposite>
    <feComposite operator="in" in="COLOR-blu" in2="FILL_40" result="FILL_50"></feComposite>
    <!-- FILL END-->

    <!-- OUTLINE -->
    <feMorphology operator="dilate" radius="3" in="SourceGraphic" result="OUTLINE_10"></feMorphology>
    <feComposite operator="out" in="OUTLINE_10" in2="SourceGraphic" result="OUTLINE_20"></feComposite>
    <feDisplacementMap scale="7" in="OUTLINE_20" in2="Texture_10" result="OUTLINE_30"></feDisplacementMap>
    <feComposite operator="arithmetic" k2="-1" k3="1" in="Texture_20" in2="OUTLINE_30" result="OUTLINE_40"></feComposite>
    <!-- OUTLINE END-->

    <!-- BEVEL OUTLINE -->
    <feConvolveMatrix order="8,8" divisor="1" kernelMatrix="1 0 0 0 0 0 0 0 0 1 0 0 0 0 0 0 0 0 1 0 0 0 0 0 0 0 0 1 0 0 0 0 0 0 0 0 1 0 0 0 0 0 0 0 0 1 0 0 0 0 0 0 0 0 1 0 0 0 0 0 0 0 0 1 " in="SourceGraphic" result="BEVEL_10"></feConvolveMatrix>
    <feMorphology operator="dilate" radius="2" in="BEVEL_10" result="BEVEL_20"></feMorphology>
    <feComposite operator="out" in="BEVEL_20" in2="BEVEL_10" result="BEVEL_30"></feComposite>
    <feDisplacementMap scale="7" in="BEVEL_30" in2="Texture_10" result="BEVEL_40"></feDisplacementMap>
    <feComposite operator="arithmetic" k2="-1" k3="1" in="Texture_20" in2="BEVEL_40" result="BEVEL_50"></feComposite>
    <feOffset dx="-7" dy="-7" in="BEVEL_50" result="BEVEL_60"></feOffset>
    <feComposite operator="out" in="BEVEL_60" in2="OUTLINE_10" result="BEVEL_70"></feComposite>
    <!-- BEVEL OUTLINE END -->

    <!-- BEVEL FILL -->
    <feOffset dx="-9" dy="-9" in="BEVEL_10" result="BEVEL-FILL_10"></feOffset>
    <feComposite operator="out" in="BEVEL-FILL_10" in2="OUTLINE_10" result="BEVEL-FILL_20"></feComposite>
    <feDisplacementMap scale="17" in="BEVEL-FILL_20" in2="Texture_10" result="BEVEL-FILL_30"></feDisplacementMap>
    <feComposite operator="in" in="COLOR-red" in2="BEVEL-FILL_30" result="BEVEL-FILL_50"></feComposite> <!-- -->
    <!-- BEVEL FILL END-->

    <feMerge result="merge2">
     <feMergeNode in="BEVEL-FILL_50"></feMergeNode>
     <feMergeNode in="BEVEL_70"></feMergeNode>
     <feMergeNode in="FILL_50"></feMergeNode>
      <feMergeNode in="OUTLINE_40"></feMergeNode>
    </feMerge>
  </filter>
</defs>
<g filter="url(#editing-scratch)"><g transform="translate(137.26563262939453, 98.18945121765137)"><path d="M34.69-6.09L36.16-1.28L36.16-1.28Q33.25-0.38 30.02 0.19L30.02 0.19L30.02 0.19Q26.78 0.75 22.91 0.75L22.91 0.75L22.91 0.75Q13.34 0.75 8.47-4.97L8.47-4.97L8.47-4.97Q3.59-10.69 3.59-21.81L3.59-21.81L3.59-21.81Q3.59-33.63 8.47-39.63L8.47-39.63L8.47-39.63Q13.34-45.63 22.91-45.63L22.91-45.63L22.91-45.63Q26.53-45.63 29.42-45L29.42-45L29.42-45Q32.31-44.38 35-43.38L35-43.38L33.38-38.75L33.38-38.75Q32.09-39.22 30.84-39.59L30.84-39.59L30.84-39.59Q29.59-39.97 28.33-40.22L28.33-40.22L28.33-40.22Q27.06-40.47 25.72-40.59L25.72-40.59L25.72-40.59Q24.38-40.72 22.91-40.72L22.91-40.72L22.91-40.72Q19.44-40.72 16.94-39.48L16.94-39.48L16.94-39.48Q14.44-38.25 12.81-35.89L12.81-35.89L12.81-35.89Q11.19-33.53 10.41-30.14L10.41-30.14L10.41-30.14Q9.63-26.75 9.63-22.44L9.63-22.44L9.63-22.44Q9.63-18 10.41-14.59L10.41-14.59L10.41-14.59Q11.19-11.19 12.81-8.86L12.81-8.86L12.81-8.86Q14.44-6.53 16.94-5.34L16.94-5.34L16.94-5.34Q19.44-4.16 22.91-4.16L22.91-4.16L22.91-4.16Q26.09-4.16 28.97-4.69L28.97-4.69L28.97-4.69Q31.84-5.22 34.69-6.09L34.69-6.09ZM56.06-33.22L56.06-33.22L56.06-33.22Q57.59-33.22 59.25-32.98L59.25-32.98L59.25-32.98Q60.91-32.75 62.50-32.09L62.50-32.09L62.50-32.09Q64.09-31.41 65.52-30.23L65.52-30.23L65.52-30.23Q66.94-29.06 68.03-27.19L68.03-27.19L68.03-27.19Q69.13-25.28 69.75-22.61L69.75-22.61L69.75-22.61Q70.38-19.94 70.38-16.25L70.38-16.25L70.38-16.25Q70.38-12.56 69.75-9.89L69.75-9.89L69.75-9.89Q69.13-7.22 68.03-5.34L68.03-5.34L68.03-5.34Q66.94-3.44 65.52-2.25L65.52-2.25L65.52-2.25Q64.09-1.06 62.50-0.41L62.50-0.41L62.50-0.41Q60.91 0.28 59.25 0.52L59.25 0.52L59.25 0.52Q57.59 0.75 56.06 0.75L56.06 0.75L56.06 0.75Q54.56 0.75 52.92 0.52L52.92 0.52L52.92 0.52Q51.28 0.28 49.69-0.41L49.69-0.41L49.69-0.41Q48.09-1.06 46.69-2.25L46.69-2.25L46.69-2.25Q45.28-3.44 44.19-5.34L44.19-5.34L44.19-5.34Q43.09-7.22 42.47-9.89L42.47-9.89L42.47-9.89Q41.84-12.56 41.84-16.25L41.84-16.25L41.84-16.25Q41.84-19.94 42.47-22.61L42.47-22.61L42.47-22.61Q43.09-25.28 44.19-27.19L44.19-27.19L44.19-27.19Q45.28-29.06 46.69-30.23L46.69-30.23L46.69-30.23Q48.09-31.41 49.69-32.09L49.69-32.09L49.69-32.09Q51.28-32.75 52.91-32.98L52.91-32.98L52.91-32.98Q54.53-33.22 56.06-33.22ZM56.06-28.81L56.06-28.81L56.06-28.81Q54.28-28.81 52.70-28.25L52.70-28.25L52.70-28.25Q51.13-27.69 49.94-26.28L49.94-26.28L49.94-26.28Q48.72-24.84 48-22.44L48-22.44L48-22.44Q47.28-20.03 47.28-16.25L47.28-16.25L47.28-16.25Q47.28-12.50 48-10.08L48-10.08L48-10.08Q48.72-7.66 49.94-6.25L49.94-6.25L49.94-6.25Q51.13-4.81 52.70-4.27L52.70-4.27L52.70-4.27Q54.28-3.72 56.06-3.72L56.06-3.72L56.06-3.72Q57.88-3.72 59.48-4.27L59.48-4.27L59.48-4.27Q61.09-4.81 62.31-6.25L62.31-6.25L62.31-6.25Q63.53-7.66 64.23-10.08L64.23-10.08L64.23-10.08Q64.94-12.50 64.94-16.25L64.94-16.25L64.94-16.25Q64.94-20.03 64.23-22.44L64.23-22.44L64.23-22.44Q63.53-24.84 62.31-26.28L62.31-26.28L62.31-26.28Q61.09-27.69 59.48-28.25L59.48-28.25L59.48-28.25Q57.88-28.81 56.06-28.81ZM83.25-44.94L83.25-12.63L83.25-12.63Q83.25-10.06 83.31-8.33L83.31-8.33L83.31-8.33Q83.38-6.59 83.47-5.28L83.47-5.28L83.47-5.28Q83.56-3.97 83.77-2.91L83.77-2.91L83.77-2.91Q83.97-1.84 84.28-0.56L84.28-0.56L84.28-0.56Q82.97-0.22 81.66 0.08L81.66 0.08L81.66 0.08Q80.34 0.38 79.03 0.59L79.03 0.59L79.03 0.59Q78.41-1.44 78.14-3.13L78.14-3.13L78.14-3.13Q77.88-4.81 77.88-6.44L77.88-6.44L77.88-44.94L83.25-44.94ZM94.72-15.13L94.72-19.75L118.34-19.75L118.34-15.13L94.72-15.13ZM130.81 0L130.81-44.94L136.69-44.94L136.69-4.81L155.09-4.81L155.09 0L130.81 0ZM164.44-26.75L164.44-26.75L163.06-31.13L163.06-31.13Q168.31-33.22 174.06-33.22L174.06-33.22L174.06-33.22Q179.09-33.22 181.75-31.53L181.75-31.53L181.75-31.53Q184.78-29.59 184.78-24.94L184.78-24.94L184.78-12.16L184.78-12.16Q184.78-9.59 184.84-6.91L184.84-6.91L184.84-6.91Q184.88-5.31 185.16-3.59L185.16-3.59L185.16-3.59Q185.41-1.97 185.81-0.50L185.81-0.50L180.69 0.63L180.69 0.63Q179.97-1.47 179.78-4.06L179.78-4.06L179.16-4.13L179.16-4.13Q175.28 0.75 169.28 0.75L169.28 0.75L169.28 0.75Q164.91 0.75 162.25-1.67L162.25-1.67L162.25-1.67Q159.59-4.09 159.59-8.50L159.59-8.50L159.59-8.50Q159.59-11.78 161.05-13.88L161.05-13.88L161.05-13.88Q162.50-15.97 165.16-17.41L165.16-17.41L165.16-17.41Q169.34-19.69 176.88-19.69L176.88-19.69L176.88-19.69Q177.88-19.69 179.56-19.63L179.56-19.63L179.56-24.38L179.56-24.38Q179.56-26.63 178.19-27.63L178.19-27.63L178.19-27.63Q176.81-28.63 173.88-28.63L173.88-28.63L173.88-28.63Q169.59-28.63 164.44-26.75ZM179.56-9.13L179.56-9.13L179.56-15.69L179.56-15.69Q178.72-15.75 177.09-15.75L177.09-15.75L177.09-15.75Q174.34-15.75 172.03-15.28L172.03-15.28L172.03-15.28Q168.59-14.59 166.70-13.11L166.70-13.11L166.70-13.11Q164.81-11.63 164.81-8.84L164.81-8.84L164.81-8.84Q164.81-3.84 170.25-3.84L170.25-3.84L170.25-3.84Q173.06-3.84 175.50-5.34L175.50-5.34L175.50-5.34Q177.50-6.59 179.56-9.13ZM195.31-0.25L195.31-45L200.69-45L200.69-26.28L201.34-26.22L201.34-26.22Q202.81-29.47 204.81-31.16L204.81-31.16L204.81-31.16Q207.13-33.22 210.41-33.22L210.41-33.22L210.41-33.22Q216.13-33.22 219.16-28.41L219.16-28.41L219.16-28.41Q221.88-23.94 221.88-16.88L221.88-16.88L221.88-16.88Q221.88-8.28 217.78-3.63L217.78-3.63L217.78-3.63Q213.88 0.75 206.22 0.75L206.22 0.75L206.22 0.75Q202.03 0.75 195.31-0.25L195.31-0.25ZM200.38-19.19L200.38-19.19L200.38-4.44L200.38-4.44Q203.25-3.84 206.22-3.84L206.22-3.84L206.22-3.84Q211.28-3.84 213.81-6.81L213.81-6.81L213.81-6.81Q216.44-9.88 216.44-15.91L216.44-15.91L216.44-15.91Q216.44-21.38 215.25-24.34L215.25-24.34L215.25-24.34Q213.69-28.25 209.94-28.25L209.94-28.25L209.94-28.25Q206.66-28.25 204.16-25.50L204.16-25.50L204.16-25.50Q202.41-23.63 200.38-19.19Z" fill="#000"></path></g></g><style>text {
  font-size: 64px;
  font-family: Arial Black;
  dominant-baseline: central;
  text-anchor: middle;
}</style></svg>